<?xml version="1.0" encoding="UTF-8"?>
<svg id="Camada_1" data-name="Camada 1" xmlns="http://www.w3.org/2000/svg" version="1.1" viewBox="0 0 841.89 262.78">
  <defs>
    <style>
      .cls-1 {
        fill: #fff;
        stroke-width: 0px;
      }
    </style>
  </defs>
  <path class="cls-1" d="M196.77,39.66l-9.89,33.47H55.56l9.49-33.47h45.52l29.62,28.39,7.15-28.39h49.43ZM184.15,86.55l-24.38,91.38h-50.3l15.46-55.44-29.36-26.65-23.28,82.29H26.51l25.05-91.58h132.59ZM335.74,39.66l-8.88,33.47h-130.55l21.54-33.47h117.9ZM322.75,86.55l-9.72,36.47h-64.96l-5.38,19.04h64.69l-9.72,35.87h-117.6l24.45-91.38h118.23ZM658.38,40.56l-9.32,32.76h-45.79l9.32-32.86,45.79.1h0ZM575.01,40.46l-9.12,32.86h-45.19l9.49-32.86h44.82ZM645.85,86.55l-25.35,91.58h-73.28c-22.98,0-37.21-6.88-42.68-20.64-1.5-3.77-2.24-7.51-2.24-11.15,0-2.24.27-4.28.77-6.18l14.8-53.6,44.52-.1-14.19,49.83c-.67,2.27-.97,3.94-.97,5.01,0,2.67,1.34,4.41,4.01,5.18h32l16.93-59.92h45.69ZM815.55,39.66l-8.88,33.47h-129.95c2.67-8.22,7.65-15.63,14.96-22.24,8.22-7.48,16.7-11.22,25.45-11.22h98.42ZM797.85,134.78c-1.04,10.65-6.41,20.81-16.13,30.53-5.41,5.41-13.69,9.69-24.85,12.82l-109.31-.3,10.65-37.97,75.75.4c6.51-.73,9.79-3.94,9.79-9.62,0-3.27-.33-5.44-.97-6.48-.87-1.37-3.01-2.64-6.48-3.74h-38.64c-8.35,0-14.49-2.1-18.44-6.31-3.94-4.21-5.94-11.09-5.94-20.61-.07-4.64-.07-6.95,0-6.95h88.51c10.82,1.44,18.14,3.57,21.91,6.45.5.47,4.14,4.41,10.85,11.86,2.47,6.38,3.71,13.66,3.71,21.81,0,2.74-.13,5.44-.4,8.12h0ZM529.41,17.37l-37.49,38.97h-113.17l-9.22-38.27h58.57l4.55,17.89,17.11-18.47,79.64-.12h0ZM477.34,71.5l-28.27,31.11,15.83,75.52-60.59-.23-4.47-19.6-17.42,19.72-79.06.12,81.9-90.57-3.38-15.71,95.47-.35h0Z"/>
  <path class="cls-1" d="M528.22,210.84v33.8h-19.21v-33.8h-18.13v-10.15h56.66v10.15h-19.31ZM584.23,234.36h15.88c0,2.46-.5,4.44-1.5,5.93-1,1.49-2.54,2.53-4.61,3.1-2,.57-4.38.98-7.14,1.22-2.75.24-5.85.36-9.28.36-4.86,0-8.98-.24-12.34-.72-3.36-.48-5.97-1.23-7.83-2.24-1.79-1.01-3.15-2.53-4.08-4.55-.93-2.02-1.4-4.55-1.4-7.58s.36-5.39,1.07-7.48c.72-2.09,1.82-3.74,3.33-4.97,1.5-1.23,3.86-2.15,7.08-2.77,3.22-.61,7.33-.92,12.34-.92,4.22,0,7.89.23,11,.69,3.11.46,5.63,1.13,7.57,2.01,1.93.88,3.38,2.24,4.35,4.08.97,1.84,1.45,4.17,1.45,6.98v3.49h-32.08c0,1.23.09,2.27.27,3.13.18.86.48,1.59.91,2.21.43.57,1.29,1.01,2.58,1.32,1.29.31,3.04.46,5.26.46,1.14,0,2.15-.05,3-.16.86-.11,1.61-.27,2.25-.49.57-.22,1.02-.58,1.34-1.09.32-.51.52-1.13.59-1.88v-.13h0ZM584.45,225.46c0-.75-.14-1.42-.43-2.01-.29-.59-.72-1.09-1.29-1.48-.57-.35-1.34-.63-2.31-.82-.97-.2-2.16-.3-3.59-.3l-.86-.13c-1.79.09-3.22.23-4.29.43-1.07.2-1.82.49-2.25.89-.43.4-.73.89-.91,1.48-.18.59-.27,1.28-.27,2.08l16.2-.13h0ZM638.64,232.38h15.88c0,2.33-.34,4.29-1.02,5.9-.68,1.6-1.7,2.89-3.06,3.85-1.36.97-3.36,1.68-6.01,2.14-2.65.46-5.9.69-9.77.69-4.58,0-8.6-.18-12.07-.53s-6.38-.92-8.74-1.71c-2.36-.79-4.13-2.17-5.31-4.15-1.18-1.98-1.77-4.57-1.77-7.77,0-2.81.34-5.27,1.02-7.38.68-2.11,1.7-3.89,3.06-5.34,1.36-1.45,3.65-2.54,6.87-3.26,3.22-.72,7.33-1.09,12.34-1.09,3.79,0,7.19.15,10.19.46,3,.31,5.58.77,7.73,1.38,2.15.57,3.77,1.69,4.88,3.36,1.11,1.67,1.66,3.86,1.66,6.59l-15.77-.13c0-.75-.13-1.39-.38-1.94-.25-.55-.63-.98-1.13-1.28-.5-.31-1.23-.54-2.2-.69-.97-.15-2.16-.23-3.59-.23-1.93,0-3.49.14-4.67.43-1.18.29-1.98.69-2.41,1.22-.43.53-.75,1.2-.97,2.01-.21.81-.32,1.79-.32,2.93v3.23c0,1.1.09,2.04.27,2.83.18.79.45,1.45.8,1.98.36.57,1.13.99,2.31,1.25,1.18.26,2.74.4,4.67.4,1.65,0,2.99-.09,4.02-.26,1.04-.18,1.77-.46,2.2-.86.43-.4.75-.91.97-1.55.21-.64.32-1.42.32-2.34v-.13h0ZM661.71,213.87h15.67v5.6h.64c.57-.97,1.31-1.82,2.2-2.57.89-.75,1.91-1.34,3.06-1.78,1.22-.48,2.54-.83,3.97-1.05,1.43-.22,3.04-.33,4.83-.33,2.58,0,4.94.18,7.08.53,2.15.35,4.01.86,5.58,1.52,1.64.7,2.86,1.66,3.65,2.87.79,1.21,1.18,2.69,1.18,4.45v21.54h-16.31v-18.05c0-.57-.09-1.15-.27-1.75-.18-.59-.45-1.15-.8-1.68-.29-.53-.84-.93-1.66-1.22s-1.88-.43-3.17-.43c-1.36,0-2.61.11-3.76.33-1.14.22-2.15.53-3,.92-.86.4-1.5.92-1.93,1.58-.43.66-.64,1.45-.64,2.37v17.92h-16.31v-30.77h0ZM718.69,227.64c0-2.68.41-4.94,1.23-6.79.82-1.84,2.09-3.25,3.81-4.22,1.72-.97,4.11-1.69,7.19-2.17,3.08-.48,6.83-.72,11.27-.72s8.53.2,11.86.59c3.33.4,6.06.97,8.21,1.71,2.15.79,3.76,2.16,4.83,4.12,1.07,1.95,1.61,4.49,1.61,7.61,0,2.94-.29,5.5-.86,7.68s-1.39,3.96-2.47,5.37c-1.07,1.41-3.29,2.45-6.65,3.13-3.36.68-7.9,1.02-13.63,1.02-4.44,0-8.32-.19-11.64-.56-3.33-.37-6.06-.96-8.21-1.75-2.22-.79-3.86-2.14-4.94-4.05-1.07-1.91-1.61-4.4-1.61-7.48v-3.49h0ZM735.1,229.22v1.52c0,1.1.11,2.06.32,2.9.21.83.57,1.56,1.07,2.17.5.62,1.36,1.08,2.58,1.38,1.22.31,2.83.46,4.83.46,1.65,0,3.04-.12,4.18-.36,1.14-.24,1.97-.63,2.47-1.15.57-.48.98-1.1,1.23-1.84.25-.75.41-1.6.48-2.57v-1.65c0-.09.02-.18.05-.26.04-.09.05-.18.05-.26v-2.17c0-1.05-.12-1.98-.38-2.77-.25-.79-.63-1.43-1.13-1.91-.5-.48-1.34-.86-2.52-1.12-1.18-.26-2.7-.4-4.56-.4-2,0-3.63.16-4.88.49-1.25.33-2.09.8-2.52,1.42-.43.66-.75,1.43-.97,2.31-.21.88-.32,1.89-.32,3.03v.79h0Z"/>
</svg>